<svg width="36" height="36" viewBox="0 0 36 36" fill="none" xmlns="http://www.w3.org/2000/svg">
<mask id="mask0_28_389" style="mask-type:alpha" maskUnits="userSpaceOnUse" x="0" y="0" width="36" height="36">
<rect width="36" height="36" fill="#D9D9D9"/>
</mask>
<g mask="url(#mask0_28_389)">
<path d="M12.1875 26.8125H14.25V23.8125H17.2125V21.75H14.25V18.7875H12.1875V21.75H9.18752V23.8125H12.1875V26.8125ZM19.5375 25.725H26.8125V23.6625H19.5375V25.725ZM19.5375 21.9375H26.8125V19.875H19.5375V21.9375ZM21.075 16.3875L23.2125 14.25L25.3125 16.3875L26.775 14.925L24.6375 12.75L26.7375 10.65L25.3125 9.18752L23.2125 11.2875L21.075 9.18752L19.6125 10.65L21.75 12.75L19.65 14.925L21.075 16.3875ZM9.56252 13.8H16.8375V11.7375H9.56252V13.8ZM7.65002 31.1625C6.87502 31.1625 6.21252 30.8875 5.66252 30.3375C5.11252 29.7875 4.83752 29.125 4.83752 28.35V7.65002C4.83752 6.87502 5.11252 6.21252 5.66252 5.66252C6.21252 5.11252 6.87502 4.83752 7.65002 4.83752H28.35C29.125 4.83752 29.7875 5.11252 30.3375 5.66252C30.8875 6.21252 31.1625 6.87502 31.1625 7.65002V28.35C31.1625 29.125 30.8875 29.7875 30.3375 30.3375C29.7875 30.8875 29.125 31.1625 28.35 31.1625H7.65002ZM7.65002 28.35H28.35V7.65002H7.65002V28.35Z" fill="white"/>
</g>
</svg>
